<?xml version="1.0" encoding="utf-8"?>
<!-- Generator: Adobe Illustrator 27.8.0, SVG Export Plug-In . SVG Version: 6.00 Build 0)  -->
<svg version="1.1" id="Layer_1" xmlns="http://www.w3.org/2000/svg" xmlns:xlink="http://www.w3.org/1999/xlink" x="0px" y="0px"
	 viewBox="0 0 340.3 340.3" style="enable-background:new 0 0 340.3 340.3;" xml:space="preserve">
<style type="text/css">
	.st0{fill:#FFFFFF;}
	.st1{fill-rule:evenodd;clip-rule:evenodd;fill:#83AD1D;}
	.st2{fill-rule:evenodd;clip-rule:evenodd;fill:#FFFFFF;}
	.st3{fill-rule:evenodd;clip-rule:evenodd;fill:#004C93;}
</style>
<rect x="0.4" y="1.1" class="st0" width="339.9" height="339.2"/>
<g>
	<path class="st1" d="M253.1,165.2l-12.3-12.3c-2.7-2.7-7.1-2.7-9.9,0l-12.3,12.3c-0.1,0.1-0.3,0.3-0.4,0.4l0,0c0,0-2.7,2.8-6.6,2.8
		h-17.2c-3.9,0-6.6-2.8-6.6-2.8l0,0c-0.1-0.1-0.3-0.3-0.4-0.4l-12.3-12.3c-0.1-0.1-0.3-0.3-0.4-0.4l0,0c0,0-2.8-2.7-2.8-6.6v-17.2
		c0-3.9,2.8-6.6,2.8-6.6l0,0c0.1-0.1,0.3-0.2,0.4-0.4l12.3-12.3c2.7-2.7,2.7-7.2,0-9.9l-12.3-12.3c-2.7-2.7-7.1-2.7-9.9,0
		l-12.3,12.3c-2.7,2.7-2.7,7.2,0,9.9l12.3,12.3c0.1,0.1,0.3,0.3,0.4,0.4c0.1,0.1,2.8,2.7,2.8,6.6v17.2c0,3.8-2.6,6.4-2.8,6.6
		c-0.2,0.1-0.3,0.3-0.4,0.4l-12.3,12.3c-0.1,0.1-0.3,0.3-0.4,0.4l0,0c0,0-2.7,2.8-6.6,2.8h-17.2c-3.9,0-6.6-2.8-6.6-2.8l0,0
		c-0.1-0.1-0.2-0.3-0.4-0.4l-12.3-12.3c-2.7-2.7-7.1-2.7-9.9,0l-12.3,12.3c-2.7,2.7-2.7,7.1,0,9.9l12.3,12.3c2.7,2.7,7.1,2.7,9.9,0
		l12.3-12.3c0.1-0.1,0.3-0.3,0.4-0.4l0,0c0,0,2.7-2.8,6.6-2.8h17.2c3.9,0,6.6,2.8,6.6,2.8l0,0c0.1,0.1,0.2,0.3,0.4,0.4l12.3,12.3
		c0.1,0.1,0.3,0.3,0.4,0.4c0,0,2.8,2.7,2.8,6.6v17.2c0,3.5-2.2,6-2.7,6.5c-0.2,0.1-0.4,0.3-0.5,0.5l-12.3,12.4
		c-2.7,2.7-2.7,7.1,0,9.9l12.3,12.3c2.7,2.7,7.1,2.7,9.9,0l12.3-12.3c2.7-2.7,2.7-7.1,0-9.9l-12.3-12.4c-0.1-0.1-0.3-0.3-0.5-0.4
		c-0.3-0.3-2.8-2.9-2.8-6.6v-17.2c0-3.9,2.8-6.6,2.8-6.6l0,0c0.1-0.1,0.3-0.2,0.4-0.4l12.3-12.3c0.1-0.1,0.3-0.3,0.4-0.4l0,0
		c0,0,2.7-2.8,6.6-2.8h17.2c3.9,0,6.6,2.8,6.6,2.8l0,0c0.1,0.1,0.3,0.3,0.4,0.4l12.3,12.3c2.7,2.7,7.1,2.7,9.9,0l12.3-12.3
		C255.9,172.4,255.9,167.9,253.1,165.2z"/>
	<path class="st2" d="M181.1,166.9l-8.2-8.2c-1.8-1.8-4.7-1.8-6.5,0l-8.2,8.2c-1.8,1.8-1.8,4.7,0,6.5l8.2,8.2c1.8,1.8,4.7,1.8,6.5,0
		l8.2-8.2C182.9,171.6,182.9,168.7,181.1,166.9"/>
	<path class="st3" d="M175.6,168.5l-4.3-4.3c-0.9-1-2.5-1-3.4,0l-4.3,4.3c-0.9,0.9-0.9,2.5,0,3.4l4.3,4.3c0.9,0.9,2.5,0.9,3.4,0
		l4.3-4.3C176.6,170.9,176.6,169.4,175.6,168.5"/>
	<g>
		<path class="st3" d="M161.6,135.6c-3.9,0-6.6-2.9-6.6-2.9l0,0c-0.1-0.1-0.2-0.3-0.4-0.4L142.3,120c-2.7-2.7-7.1-2.7-9.9,0
			l-12.3,12.4c-2.7,2.7-2.7,7.1,0,9.9l12.3,12.3c2.7,2.7,7.1,2.7,9.9,0l12.3-12.3c0.1-0.1,0.3-0.3,0.4-0.4l0,0c0,0,2.7-2.9,6.6-2.9
			h6.9v-3.3H161.6z"/>
		<path class="st3" d="M154.6,198l-12.3-12.3c-0.1-0.1-0.3-0.3-0.4-0.4l0,0c0,0-2.9-2.7-2.9-6.6v-6.9h-3.3v6.9
			c0,3.9-2.9,6.6-2.9,6.6l0,0c-0.1,0.1-0.3,0.2-0.4,0.4L120,198c-2.7,2.7-2.7,7.1,0,9.9l12.3,12.3c2.7,2.7,7.1,2.7,9.9,0l12.3-12.3
			C157.3,205.1,157.3,200.7,154.6,198z"/>
		<path class="st3" d="M220.2,198.1l-12.3-12.4c-2.7-2.7-7.1-2.7-9.9,0l-12.3,12.4c-0.1,0.1-0.3,0.3-0.4,0.4l0,0
			c0,0-2.7,2.8-6.6,2.8h-6.9v3.3h6.9c3.9,0,6.6,2.9,6.6,2.9l0,0c0.1,0.1,0.2,0.3,0.4,0.4l12.3,12.3c2.7,2.7,7.1,2.7,9.9,0l12.3-12.3
			C222.9,205.2,222.9,200.8,220.2,198.1z"/>
		<path class="st3" d="M220.3,132.4l-12.3-12.3c-2.7-2.7-7.1-2.7-9.9,0l-12.3,12.3c-2.7,2.7-2.7,7.1,0,9.9l12.3,12.3
			c0.1,0.1,0.3,0.3,0.4,0.4c0.1,0.1,2.8,2.7,2.8,6.6v6.9h3.3v-6.9c0-3.9,2.9-6.6,2.9-6.6l0,0c0.1-0.1,0.3-0.2,0.4-0.4l12.3-12.3
			C223,139.6,223,135.2,220.3,132.4z"/>
	</g>
</g>
<g>
</g>
<g>
</g>
<g>
</g>
<g>
</g>
<g>
</g>
<g>
</g>
</svg>
