<?xml version="1.0" encoding="utf-8"?>
<!-- Generator: Adobe Illustrator 27.8.0, SVG Export Plug-In . SVG Version: 6.00 Build 0)  -->
<svg version="1.1" id="Ebene_1" xmlns="http://www.w3.org/2000/svg" xmlns:xlink="http://www.w3.org/1999/xlink" x="0px" y="0px"
	 viewBox="0 0 817.5 340.2" style="enable-background:new 0 0 817.5 340.2;" xml:space="preserve">
<style type="text/css">
	.st0{fill:none;}
	.st1{fill:#004C92;}
	.st2{fill-rule:evenodd;clip-rule:evenodd;fill:#82AC28;}
	.st3{fill-rule:evenodd;clip-rule:evenodd;fill:#FFFFFF;}
	.st4{fill-rule:evenodd;clip-rule:evenodd;fill:#004C92;}
</style>
<rect y="0.2" class="st0" width="817.5" height="340.1"/>
<g>
	<g>
		<polygon class="st1" points="280.9,128 280.9,117.5 353.2,117.5 353.2,128 321.9,128 321.9,221.7 311.3,221.7 311.3,128 		"/>
		<path class="st1" d="M349.7,221.7v-75.6h7.4l3.1,9.5c7.2-4.4,11.8-6.9,13.7-7.5c1.9-0.6,3.6-1.2,5.1-1.6c2.8-0.8,6.5-1.3,11-1.3
			c4.5,0,7.4,0.4,9,1.1v10.4c-2.3-0.6-5.5-0.9-9.7-0.9c-4.2,0-7.9,0.4-11.2,1.1c-3.3,0.8-5.9,1.6-7.8,2.4c-1.9,0.9-5.3,2.4-10,4.7
			v57.5H349.7z"/>
		<path class="st1" d="M408.9,133.9v-7.7c0-2.4,1.1-3.6,3.4-3.6h7.1c2.2,0,3.3,1.2,3.3,3.6v7.7c0,2.2-1.1,3.3-3.3,3.3h-7.1
			C410,137.1,408.9,136,408.9,133.9 M410.3,146.1h10.5v75.6h-10.5V146.1z"/>
		<polygon class="st1" points="432.6,146.1 444.2,146.1 467.8,206.2 491.7,146.1 503.3,146.1 472.9,221.7 462.4,221.7 		"/>
		<path class="st1" d="M513.2,133.9v-7.7c0-2.4,1.1-3.6,3.4-3.6h7.1c2.2,0,3.3,1.2,3.3,3.6v7.7c0,2.2-1.1,3.3-3.3,3.3h-7.1
			C514.4,137.1,513.2,136,513.2,133.9 M514.6,146.1h10.5v75.6h-10.5V146.1z"/>
		<path class="st1" d="M541.3,198.8v-52.7h10.5v52.7c0,4.5,1.2,7.8,3.6,10.2c2.4,2.3,5.4,3.5,9.1,3.5c3.7,0,7.2-0.4,10.4-1.1
			c3.2-0.8,5.8-1.5,7.8-2.4c1.9-0.8,5.2-2.4,9.9-4.6v-58.2H603v75.6h-7.4l-3.1-8.8c-0.3,0.1-1.3,0.7-3.1,1.8
			c-1.8,1.1-2.9,1.7-3.3,1.9c-0.4,0.2-1.4,0.7-3.1,1.6c-1.6,0.9-2.7,1.4-3.4,1.6c-0.7,0.2-1.8,0.6-3.3,1.1c-1.5,0.6-2.8,0.9-3.7,1.1
			c-3,0.6-5.7,0.9-8,0.9c-7.2,0-12.9-2.4-17.1-7.1C543.4,211.1,541.3,205.4,541.3,198.8"/>
		<path class="st1" d="M620.1,221.7v-75.6h7.4l3.1,9.1c0.6-0.4,1.7-1.1,3.5-2.1c1.8-1,3-1.7,3.7-2.1c0.7-0.4,1.9-1,3.4-1.8
			c1.6-0.8,2.9-1.3,3.9-1.6l3.6-1.3c2.3-0.8,5.5-1.1,9.7-1.1c4.2,0,8.2,1,12,3c3.8,2,6.5,4.7,8.1,8.1c8.9-7.4,19.1-11.1,30.5-11.1
			c6.6,0,12.2,2.3,16.7,6.8c4.5,4.6,6.7,10.4,6.7,17.5v52.1h-10.5v-52.1c0-4.2-1.2-7.5-3.6-10c-2.4-2.5-5.5-3.8-9.2-3.8
			c-5.7,0-10.6,0.6-14.7,1.7c-4.1,1.1-8.5,3.2-13.2,6.3v57.9h-10.5v-52.1c0-4.2-1.2-7.5-3.6-10c-2.4-2.5-5.5-3.8-9.1-3.8
			c-3.7,0-7,0.4-10.1,1.1c-3.1,0.8-5.5,1.5-7.2,2.2c-1.7,0.7-5,2.2-9.8,4.6v57.9H620.1z"/>
	</g>
	<g>
		<path class="st2" d="M253.1,165.3L240.7,153c-2.7-2.7-7.1-2.7-9.9,0l-12.3,12.3c-0.1,0.1-0.3,0.3-0.4,0.4l0,0c0,0-2.7,2.8-6.6,2.8
			h-17.2c-3.9,0-6.6-2.8-6.6-2.8l0,0c-0.1-0.1-0.3-0.3-0.4-0.4L175,153c-0.1-0.1-0.3-0.3-0.4-0.4l0,0c0,0-2.8-2.7-2.8-6.6v-17.2
			c0-3.9,2.8-6.6,2.8-6.6l0,0c0.1-0.1,0.3-0.2,0.4-0.4l12.3-12.3c2.7-2.7,2.7-7.2,0-9.9L175,87.2c-2.7-2.7-7.1-2.7-9.9,0l-12.3,12.3
			c-2.7,2.7-2.7,7.2,0,9.9l12.3,12.3c0.1,0.1,0.3,0.3,0.4,0.4c0.1,0.1,2.8,2.7,2.8,6.6V146c0,3.8-2.6,6.4-2.8,6.6
			c-0.2,0.1-0.3,0.3-0.4,0.4l-12.3,12.3c-0.1,0.1-0.3,0.3-0.4,0.4l0,0c0,0-2.7,2.8-6.6,2.8h-17.2c-3.9,0-6.6-2.8-6.6-2.8l0,0
			c-0.1-0.1-0.2-0.3-0.4-0.4L109.3,153c-2.7-2.7-7.1-2.7-9.9,0l-12.3,12.3c-2.7,2.7-2.7,7.1,0,9.9l12.3,12.3c2.7,2.7,7.1,2.7,9.9,0
			l12.3-12.3c0.1-0.1,0.3-0.3,0.4-0.4l0,0c0,0,2.7-2.8,6.6-2.8h17.2c3.9,0,6.6,2.8,6.6,2.8l0,0c0.1,0.1,0.2,0.3,0.4,0.4l12.3,12.3
			c0.1,0.1,0.3,0.3,0.4,0.4c0,0,2.8,2.7,2.8,6.6v17.2c0,3.5-2.2,6-2.7,6.5c-0.2,0.1-0.4,0.3-0.5,0.5L152.8,231
			c-2.7,2.7-2.7,7.1,0,9.9l12.3,12.3c2.7,2.7,7.1,2.7,9.9,0l12.3-12.3c2.7-2.7,2.7-7.1,0-9.9L175,218.7c-0.1-0.1-0.3-0.3-0.5-0.4
			c-0.3-0.3-2.8-2.9-2.8-6.6v-17.2c0-3.9,2.8-6.6,2.8-6.6l0,0c0.1-0.1,0.3-0.2,0.4-0.4l12.3-12.3c0.1-0.1,0.3-0.3,0.4-0.4l0,0
			c0,0,2.7-2.8,6.6-2.8h17.2c3.9,0,6.6,2.8,6.6,2.8l0,0c0.1,0.1,0.3,0.3,0.4,0.4l12.3,12.3c2.7,2.7,7.1,2.7,9.9,0l12.3-12.3
			C255.8,172.5,255.8,168,253.1,165.3z"/>
		<path class="st3" d="M181,167l-8.2-8.2c-1.8-1.8-4.7-1.8-6.5,0l-8.2,8.2c-1.8,1.8-1.8,4.7,0,6.5l8.2,8.2c1.8,1.8,4.7,1.8,6.5,0
			l8.2-8.2C182.8,171.7,182.8,168.8,181,167"/>
		<path class="st4" d="M175.6,168.5l-4.3-4.3c-0.9-1-2.5-1-3.4,0l-4.3,4.3c-0.9,0.9-0.9,2.5,0,3.4l4.3,4.3c0.9,0.9,2.5,0.9,3.4,0
			l4.3-4.3C176.5,171,176.5,169.5,175.6,168.5"/>
		<g>
			<path class="st4" d="M161.6,135.7c-3.9,0-6.6-2.9-6.6-2.9l0,0c-0.1-0.1-0.2-0.3-0.4-0.4l-12.3-12.4c-2.7-2.7-7.1-2.7-9.9,0
				L120,132.4c-2.7,2.7-2.7,7.1,0,9.9l12.3,12.3c2.7,2.7,7.1,2.7,9.9,0l12.3-12.3c0.1-0.1,0.3-0.3,0.4-0.4l0,0c0,0,2.7-2.9,6.6-2.9
				h6.9v-3.3H161.6z"/>
			<path class="st4" d="M154.5,198.1l-12.3-12.3c-0.1-0.1-0.3-0.3-0.4-0.4l0,0c0,0-2.9-2.7-2.9-6.6v-6.9h-3.3v6.9
				c0,3.9-2.9,6.6-2.9,6.6l0,0c-0.1,0.1-0.3,0.2-0.4,0.4l-12.3,12.3c-2.7,2.7-2.7,7.1,0,9.9l12.3,12.3c2.7,2.7,7.1,2.7,9.9,0
				l12.3-12.3C157.2,205.2,157.2,200.8,154.5,198.1z"/>
			<path class="st4" d="M220.1,198.2l-12.3-12.4c-2.7-2.7-7.1-2.7-9.9,0l-12.3,12.4c-0.1,0.1-0.3,0.3-0.4,0.4l0,0
				c0,0-2.7,2.8-6.6,2.8h-6.9v3.3h6.9c3.9,0,6.6,2.9,6.6,2.9l0,0c0.1,0.1,0.2,0.3,0.4,0.4l12.3,12.3c2.7,2.7,7.1,2.7,9.9,0
				l12.3-12.3C222.9,205.3,222.9,200.9,220.1,198.2z"/>
			<path class="st4" d="M220.2,132.5l-12.3-12.3c-2.7-2.7-7.1-2.7-9.9,0l-12.3,12.3c-2.7,2.7-2.7,7.1,0,9.9l12.3,12.3
				c0.1,0.1,0.3,0.3,0.4,0.4c0.1,0.1,2.8,2.7,2.8,6.6v6.9h3.3v-6.9c0-3.9,2.9-6.6,2.9-6.6l0,0c0.1-0.1,0.3-0.2,0.4-0.4l12.3-12.3
				C222.9,139.7,222.9,135.3,220.2,132.5z"/>
		</g>
	</g>
</g>
<g>
</g>
<g>
</g>
<g>
</g>
<g>
</g>
<g>
</g>
<g>
</g>
</svg>
