<?xml version="1.0" encoding="utf-8"?>
<!-- Generator: Adobe Illustrator 27.8.0, SVG Export Plug-In . SVG Version: 6.00 Build 0)  -->
<svg version="1.1" id="Layer_1" xmlns="http://www.w3.org/2000/svg" xmlns:xlink="http://www.w3.org/1999/xlink" x="0px" y="0px"
	 viewBox="0 0 692.8 342.7" style="enable-background:new 0 0 692.8 342.7;" xml:space="preserve">
<style type="text/css">
	.st0{fill:#FFFFFF;}
	.st1{fill:#83AD1D;}
	.st2{fill:#004C93;}
	.st3{fill-rule:evenodd;clip-rule:evenodd;fill:#83AD1D;}
	.st4{fill-rule:evenodd;clip-rule:evenodd;fill:#FFFFFF;}
	.st5{fill-rule:evenodd;clip-rule:evenodd;fill:#004C93;}
</style>
<rect y="0" class="st0" width="692.8" height="342.7"/>
<g>
	<g>
		<path class="st1" d="M315.4,243.6l0.1,4.1c0,0-7.9,1.1-13.4,1.1c-10.3,0-13.6-6-13.6-17.7c0-13.1,5.6-18.1,14.4-18.1
			c9.2,0,13.8,4.8,13.8,16.1l-0.3,3.9h-22.7c0,7.4,2.3,11.2,9,11.2C307.9,244.2,315.4,243.6,315.4,243.6z M311.5,228.8
			c0-8.5-2.6-11.6-8.7-11.6c-5.9,0-9.2,3.2-9.2,11.6H311.5z"/>
		<path class="st1" d="M353.8,205.5c0,0-9.6-1.2-13.6-1.2c-6.7,0-10.3,2.4-10.3,7.8c0,6.2,3.3,7.2,11.6,9.1
			c9.5,2.1,13.7,4.5,13.7,12.8c0,10.5-5.8,14.7-15.2,14.7c-5.7,0-15.1-1.5-15.1-1.5l0.5-4.4c0,0,9.4,1.2,14.3,1.2
			c6.7,0,10.2-3,10.2-9.6c0-5.4-2.8-6.9-10.6-8.4c-9.8-2.1-14.8-4.5-14.8-13.6c0-9.2,6.1-12.8,15.4-12.8c5.7,0,14.4,1.4,14.4,1.4
			L353.8,205.5z"/>
		<path class="st1" d="M393.2,230.4c0,12.5-3.1,18.3-14.7,18.3s-14.7-5.8-14.7-18.3c0-11.8,3.9-17.5,14.7-17.5
			C389.4,212.9,393.2,218.6,393.2,230.4z M387.9,230.4c0-9.6-2.1-13-9.4-13s-9.4,3.4-9.4,13c0,9.8,1.3,13.8,9.4,13.8
			C386.7,244.2,387.9,240.2,387.9,230.4z"/>
		<path class="st1" d="M403.7,198.6h5.2V248h-5.2V198.6z"/>
		<path class="st1" d="M447.6,213.6V248h-5.2v-2.4c0,0-5.2,3.1-10.2,3.1c-9.6,0-11.6-4.5-11.6-17.2v-18h5.2v17.9
			c0,9.5,0.8,12.6,7.2,12.6c5.1,0,9.4-2.5,9.4-2.5v-28L447.6,213.6L447.6,213.6z"/>
		<path class="st1" d="M466.1,218.1v16.5c0,7.5,0.5,9.6,5,9.6c1.9,0,6.1-0.4,6.1-0.4l0.3,4.3c0,0-4.6,0.8-7,0.8
			c-7.1,0-9.5-2.7-9.5-12.6v-18.1h-4.9v-4.5h4.9v-10.5h5.1v10.5H477v4.5h-10.9V218.1z"/>
		<path class="st1" d="M485.2,199.8h5.2v6h-5.2V199.8z M485.2,213.6h5.2V248h-5.2V213.6z"/>
		<path class="st1" d="M529.9,230.4c0,12.5-3.1,18.3-14.7,18.3c-11.6,0-14.7-5.8-14.7-18.3c0-11.8,3.9-17.5,14.7-17.5
			C526.1,212.9,529.9,218.6,529.9,230.4z M524.6,230.4c0-9.6-2.1-13-9.4-13c-7.3,0-9.4,3.4-9.4,13c0,9.8,1.3,13.8,9.4,13.8
			C523.4,244.2,524.6,240.2,524.6,230.4z"/>
		<path class="st1" d="M540,248v-34.4h5.1v2.4c0,0,5.6-3.1,10.7-3.1c9.5,0,11.6,4.7,11.6,16.9V248h-5.1v-18c0-9.1-1-12.5-7.4-12.5
			c-5,0-9.7,2.6-9.7,2.6v28H540V248z"/>
		<path class="st1" d="M601.6,218.6c0,0-7.6-1.1-12.1-1.1c-4.3,0-7.5,1.2-7.5,5.2c0,3.2,1.7,4.1,9,5.4c8.6,1.5,11.8,3.2,11.8,9.8
			c0,8.1-5.1,10.7-13.4,10.7c-4.4,0-12.1-1.3-12.1-1.3l0.3-4.5c0,0,7.9,1.2,11.4,1.2c5.7,0,8.7-1.2,8.7-5.9c0-3.6-1.8-4.5-9.3-5.6
			c-7.8-1.2-11.5-2.7-11.5-9.6c0-7.6,6.1-10.1,12.4-10.1c5.2,0,12.5,1.3,12.5,1.3L601.6,218.6z"/>
	</g>
	<g>
		<polygon class="st2" points="275.9,113.7 275.9,106.1 328.2,106.1 328.2,113.7 305.5,113.7 305.5,181.5 297.9,181.5 297.9,113.7 
					"/>
		<path class="st2" d="M325.6,181.5v-54.7h5.4l2.3,6.9c5.2-3.2,8.5-5,9.9-5.4c1.4-0.4,2.6-0.8,3.7-1.2c2.1-0.6,4.7-0.9,7.9-0.9
			c3.2,0,5.4,0.3,6.5,0.8v7.5c-1.6-0.4-4-0.6-7-0.6s-5.7,0.3-8.1,0.8s-4.3,1.1-5.7,1.7c-1.4,0.6-3.8,1.8-7.3,3.4v41.6h-7.6V181.5z"
			/>
		<path class="st2" d="M368.5,117.9v-5.6c0-1.7,0.8-2.6,2.5-2.6h5.2c1.6,0,2.4,0.9,2.4,2.6v5.6c0,1.6-0.8,2.4-2.4,2.4H371
			C369.3,120.3,368.5,119.5,368.5,117.9 M369.5,126.8h7.6v54.7h-7.6V126.8z"/>
		<polygon class="st2" points="385.7,126.8 394,126.8 411.1,170.3 428.4,126.8 436.8,126.8 414.8,181.5 407.2,181.5 		"/>
		<path class="st2" d="M444,117.9v-5.6c0-1.7,0.8-2.6,2.5-2.6h5.2c1.6,0,2.4,0.9,2.4,2.6v5.6c0,1.6-0.8,2.4-2.4,2.4h-5.2
			C444.8,120.3,444,119.5,444,117.9 M445,126.8h7.6v54.7H445V126.8z"/>
		<path class="st2" d="M464.3,164.9v-38.1h7.6v38.1c0,3.2,0.9,5.7,2.6,7.4s3.9,2.5,6.6,2.5s5.2-0.3,7.5-0.8c2.3-0.6,4.2-1.1,5.6-1.7
			c1.4-0.6,3.8-1.7,7.2-3.4v-42.1h7.6v54.7h-5.4l-2.3-6.4c-0.2,0.1-1,0.5-2.3,1.3s-2.1,1.2-2.4,1.4c-0.3,0.1-1,0.5-2.2,1.2
			s-2,1-2.5,1.2c-0.5,0.1-1.3,0.4-2.4,0.8c-1.1,0.4-2,0.7-2.7,0.8c-2.2,0.4-4.1,0.6-5.8,0.6c-5.2,0-9.3-1.7-12.4-5.2
			C465.8,173.8,464.3,169.7,464.3,164.9"/>
		<path class="st2" d="M521.3,181.5v-54.7h5.4l2.3,6.6c0.4-0.3,1.3-0.8,2.5-1.5c1.3-0.7,2.2-1.2,2.7-1.5s1.3-0.7,2.5-1.3
			c1.1-0.5,2.1-0.9,2.8-1.1l2.6-0.9c1.6-0.5,4-0.8,7-0.8s5.9,0.7,8.7,2.2c2.7,1.4,4.7,3.4,5.9,5.9c6.5-5.4,13.8-8,22-8
			c4.8,0,8.8,1.7,12.1,4.9c3.2,3.3,4.8,7.5,4.8,12.7v37.7H595V144c0-3-0.9-5.4-2.6-7.3c-1.8-1.8-4-2.7-6.6-2.7
			c-4.1,0-7.7,0.4-10.7,1.2s-6.2,2.3-9.5,4.5v41.9H558v-37.7c0-3-0.9-5.4-2.6-7.3c-1.8-1.8-3.9-2.7-6.6-2.7c-2.6,0-5.1,0.3-7.3,0.8
			c-2.2,0.6-4,1.1-5.2,1.6s-3.6,1.6-7.1,3.3v41.9H521.3z"/>
	</g>
	<g>
		<path class="st3" d="M255.2,166.6l-12.3-12.3c-2.7-2.7-7.1-2.7-9.9,0l-12.3,12.3c-0.1,0.1-0.3,0.3-0.4,0.4l0,0
			c0,0-2.7,2.8-6.6,2.8h-17.2c-3.9,0-6.6-2.8-6.6-2.8l0,0c-0.1-0.1-0.3-0.3-0.4-0.4l-12.3-12.3c-0.1-0.1-0.3-0.3-0.4-0.4l0,0
			c0,0-2.8-2.7-2.8-6.6v-17.2c0-3.9,2.8-6.6,2.8-6.6l0,0c0.1-0.1,0.3-0.2,0.4-0.4l12.3-12.3c2.7-2.7,2.7-7.2,0-9.9l-12.3-12.3
			c-2.7-2.7-7.1-2.7-9.9,0L155,100.9c-2.7,2.7-2.7,7.2,0,9.9l12.3,12.3c0.1,0.1,0.3,0.3,0.4,0.4c0.1,0.1,2.8,2.7,2.8,6.6v17.2
			c0,3.8-2.6,6.4-2.8,6.6c-0.2,0.1-0.3,0.3-0.4,0.4L155,166.6c-0.1,0.1-0.3,0.3-0.4,0.4l0,0c0,0-2.7,2.8-6.6,2.8h-17.2
			c-3.9,0-6.6-2.8-6.6-2.8l0,0c-0.1-0.1-0.2-0.3-0.4-0.4l-12.3-12.3c-2.7-2.7-7.1-2.7-9.9,0l-12.3,12.3c-2.7,2.7-2.7,7.1,0,9.9
			l12.3,12.3c2.7,2.7,7.1,2.7,9.9,0l12.3-12.3c0.1-0.1,0.3-0.3,0.4-0.4l0,0c0,0,2.7-2.8,6.6-2.8H148c3.9,0,6.6,2.8,6.6,2.8l0,0
			c0.1,0.1,0.2,0.3,0.4,0.4l12.3,12.3c0.1,0.1,0.3,0.3,0.4,0.4c0,0,2.8,2.7,2.8,6.6V213c0,3.5-2.2,6-2.7,6.5
			c-0.2,0.1-0.4,0.3-0.5,0.5L155,232.4c-2.7,2.7-2.7,7.1,0,9.9l12.3,12.3c2.7,2.7,7.1,2.7,9.9,0l12.3-12.3c2.7-2.7,2.7-7.1,0-9.9
			L177.2,220c-0.1-0.1-0.3-0.3-0.5-0.4c-0.3-0.3-2.8-2.9-2.8-6.6v-17.2c0-3.9,2.8-6.6,2.8-6.6l0,0c0.1-0.1,0.3-0.2,0.4-0.4
			l12.3-12.3c0.1-0.1,0.3-0.3,0.4-0.4l0,0c0,0,2.7-2.8,6.6-2.8h17.2c3.9,0,6.6,2.8,6.6,2.8l0,0c0.1,0.1,0.3,0.3,0.4,0.4l12.3,12.3
			c2.7,2.7,7.1,2.7,9.9,0l12.3-12.3C258,173.8,258,169.4,255.2,166.6z"/>
		<path class="st4" d="M183.2,168.3l-8.2-8.2c-1.8-1.8-4.7-1.8-6.5,0l-8.2,8.2c-1.8,1.8-1.8,4.7,0,6.5l8.2,8.2
			c1.8,1.8,4.7,1.8,6.5,0l8.2-8.2C185,173,185,170.1,183.2,168.3"/>
		<path class="st5" d="M177.7,169.9l-4.3-4.3c-0.9-1-2.5-1-3.4,0l-4.3,4.3c-0.9,0.9-0.9,2.5,0,3.4l4.3,4.3c0.9,0.9,2.5,0.9,3.4,0
			l4.3-4.3C178.7,172.3,178.7,170.8,177.7,169.9"/>
		<g>
			<path class="st5" d="M163.7,137.1c-3.9,0-6.6-2.9-6.6-2.9l0,0c-0.1-0.1-0.2-0.3-0.4-0.4l-12.3-12.4c-2.7-2.7-7.1-2.7-9.9,0
				l-12.3,12.4c-2.7,2.7-2.7,7.1,0,9.9l12.3,12.3c2.7,2.7,7.1,2.7,9.9,0l12.3-12.3c0.1-0.1,0.3-0.3,0.4-0.4l0,0c0,0,2.7-2.9,6.6-2.9
				h6.9v-3.3L163.7,137.1L163.7,137.1z"/>
			<path class="st5" d="M156.7,199.4l-12.3-12.3c-0.1-0.1-0.3-0.3-0.4-0.4l0,0c0,0-2.9-2.7-2.9-6.6v-6.9h-3.3v6.9
				c0,3.9-2.9,6.6-2.9,6.6l0,0c-0.1,0.1-0.3,0.2-0.4,0.4l-12.3,12.3c-2.7,2.7-2.7,7.1,0,9.9l12.3,12.3c2.7,2.7,7.1,2.7,9.9,0
				l12.3-12.3C159.4,206.6,159.4,202.1,156.7,199.4z"/>
			<path class="st5" d="M222.3,199.5L210,187.1c-2.7-2.7-7.1-2.7-9.9,0l-12.3,12.4c-0.1,0.1-0.3,0.3-0.4,0.4l0,0
				c0,0-2.7,2.8-6.6,2.8h-6.9v3.3h6.9c3.9,0,6.6,2.9,6.6,2.9l0,0c0.1,0.1,0.2,0.3,0.4,0.4l12.3,12.3c2.7,2.7,7.1,2.7,9.9,0
				l12.3-12.3C225,206.6,225,202.2,222.3,199.5z"/>
			<path class="st5" d="M222.4,133.9L210,121.5c-2.7-2.7-7.1-2.7-9.9,0l-12.3,12.3c-2.7,2.7-2.7,7.1,0,9.9l12.3,12.3
				c0.1,0.1,0.3,0.3,0.4,0.4c0.1,0.1,2.8,2.7,2.8,6.6v6.9h3.3V163c0-3.9,2.9-6.6,2.9-6.6l0,0c0.1-0.1,0.3-0.2,0.4-0.4l12.3-12.3
				C225.1,141,225.1,136.6,222.4,133.9z"/>
		</g>
	</g>
</g>
</svg>
